<?xml version="1.0" encoding="utf-8"?>
<svg
	version="1.1"
	xmlns="http://www.w3.org/2000/svg"
	xmlns:xlink="http://www.w3.org/1999/xlink"
	x="0%" y="0%"
	width="100%" height="100%"
	viewBox="0 0 24.0 24.0"
	enable-background="new 0 0 24.0 24.0"
	xml:space="preserve">
	<path
		fill="#FFFFFF"
		stroke="#000000"
		fill-opacity="1.000"
		stroke-opacity="1.000"
		fill-rule="nonzero"
		stroke-width="1.4399999"
		stroke-linejoin="miter"
		stroke-linecap="square"
		d="M4.00,4.00L20.00,4.00A2.00 2.00 0 0 1 22.00,6.00L22.00,18.00A2.00 2.00 0 0 1 20.00,20.00L4.00,20.00A2.00 2.00 0 0 1 2.00,18.00L2.00,6.00A2.00 2.00 0 0 1 4.00,4.00z"/>
	<path
		fill="#FFFFFF"
		stroke="#000000"
		fill-opacity="1.000"
		stroke-opacity="1.000"
		fill-rule="nonzero"
		stroke-width="0.96"
		stroke-linejoin="miter"
		stroke-linecap="square"
		d="M12.00,20.00L12.00,4.00"/>
	<path
		fill="#FFFFFF"
		stroke="#000000"
		fill-opacity="1.000"
		stroke-opacity="1.000"
		fill-rule="nonzero"
		stroke-width="0.96"
		stroke-linejoin="miter"
		stroke-linecap="square"
		d="M3.39,10.37L9.29,10.37L9.29,13.80L3.39,13.80zM14.71,13.90L20.61,13.90L20.61,10.46L14.71,10.46z"/>
</svg>