<?xml version="1.0" encoding="utf-8"?>
<svg
	version="1.1"
	xmlns="http://www.w3.org/2000/svg"
	xmlns:xlink="http://www.w3.org/1999/xlink"
	x="0%" y="0%"
	width="100%" height="100%"
	viewBox="0 0 24.0 24.0"
	enable-background="new 0 0 24.0 24.0"
	xml:space="preserve">
	<path
		fill="#FFFFFF"
		stroke="#000000"
		fill-opacity="1.000"
		stroke-opacity="1.000"
		fill-rule="nonzero"
		stroke-width="1.4399999"
		stroke-linejoin="miter"
		stroke-linecap="square"
		d="M4.29,4.00L19.71,4.00A2.29 2.29 0 0 1 22.00,6.29L22.00,17.71A2.29 2.29 0 0 1 19.71,20.00L4.29,20.00A2.29 2.29 0 0 1 2.00,17.71L2.00,6.29A2.29 2.29 0 0 1 4.29,4.00z"/>
	<path
		fill="#FFFFFF"
		stroke="#000000"
		fill-opacity="1.000"
		stroke-opacity="1.000"
		fill-rule="nonzero"
		stroke-width="0.96"
		stroke-linejoin="miter"
		stroke-linecap="square"
		d="M12.00,15.12L12.00,4.00M22.13,15.41L2.13,15.41"/>
	<path
		fill="#FFFFFF"
		stroke="#000000"
		fill-opacity="1.000"
		stroke-opacity="1.000"
		fill-rule="nonzero"
		stroke-width="0.96"
		stroke-linejoin="miter"
		stroke-linecap="square"
		d="M13.63,18.00L19.00,18.00M10.52,18.00L5.15,18.00"/>
	<path
		fill="#FFFFFF"
		stroke="#000000"
		fill-opacity="1.000"
		stroke-opacity="1.000"
		fill-rule="nonzero"
		stroke-width="0.71999997"
		stroke-linejoin="miter"
		stroke-linecap="square"
		d="M3.79,8.74L5.56,4.73L2.06,3.62L3.79,8.74z"/>
	<path
		fill="#FFFFFF"
		stroke="#000000"
		fill-opacity="1.000"
		stroke-opacity="1.000"
		fill-rule="nonzero"
		stroke-width="0.71999997"
		stroke-linejoin="miter"
		stroke-linecap="square"
		d="M9.35,8.41L8.83,1.00L5.72,4.83L9.35,8.41z"/>
</svg>