<?xml version="1.0" encoding="utf-8"?>
<svg
	version="1.1"
	xmlns="http://www.w3.org/2000/svg"
	xmlns:xlink="http://www.w3.org/1999/xlink"
	x="0%" y="0%"
	width="100%" height="100%"
	viewBox="0 0 24.0 24.0"
	enable-background="new 0 0 24.0 24.0"
	xml:space="preserve">
	<path
		fill="#FFFFFF"
		stroke="#000000"
		fill-opacity="1.000"
		stroke-opacity="1.000"
		fill-rule="nonzero"
		stroke-width="0.96"
		stroke-linejoin="miter"
		stroke-linecap="square"
		d="M1.00,10.00L1.00,1.00L10.00,1.00L10.00,4.00L4.00,4.00L4.00,10.00L1.00,10.00z"/>
	<path
		fill="#FFFFFF"
		stroke="#000000"
		fill-opacity="1.000"
		stroke-opacity="1.000"
		fill-rule="nonzero"
		stroke-width="0.96"
		stroke-linejoin="miter"
		stroke-linecap="square"
		d="M10.00,23.00L1.00,23.00L1.00,15.00L4.00,15.00L4.00,20.00L10.00,20.00L10.00,23.00z"/>
	<path
		fill="#FFFFFF"
		stroke="#000000"
		fill-opacity="1.000"
		stroke-opacity="1.000"
		fill-rule="nonzero"
		stroke-width="0.96"
		stroke-linejoin="miter"
		stroke-linecap="square"
		d="M23.00,14.00L23.00,23.00L14.00,23.00L14.00,20.00L20.00,20.00L20.00,14.00L23.00,14.00z"/>
	<path
		fill="#FFFFFF"
		stroke="#000000"
		fill-opacity="1.000"
		stroke-opacity="1.000"
		fill-rule="nonzero"
		stroke-width="0.96"
		stroke-linejoin="miter"
		stroke-linecap="square"
		d="M14.00,4.00L20.00,4.00L20.00,10.00L23.00,10.00L23.00,1.00L14.00,1.00L14.00,4.00z"/>
</svg>